<?xml version="1.0" encoding="UTF-8" standalone="no"?>
<!-- Created with Inkscape (http://www.inkscape.org/) -->

<svg
   xmlns:dc="http://purl.org/dc/elements/1.1/"
   xmlns:cc="http://creativecommons.org/ns#"
   xmlns:rdf="http://www.w3.org/1999/02/22-rdf-syntax-ns#"
   xmlns:svg="http://www.w3.org/2000/svg"
   xmlns="http://www.w3.org/2000/svg"
   xmlns:sodipodi="http://sodipodi.sourceforge.net/DTD/sodipodi-0.dtd"
   xmlns:inkscape="http://www.inkscape.org/namespaces/inkscape"
   width="744.09448819"
   height="1052.3622047"
   id="svg2"
   version="1.1"
   inkscape:version="0.48.4 r9939"
   sodipodi:docname="sidebar.svg">
  <defs
     id="defs4" />
  <sodipodi:namedview
     id="base"
     pagecolor="#ffffff"
     bordercolor="#666666"
     borderopacity="1.0"
     inkscape:pageopacity="0.0"
     inkscape:pageshadow="2"
     inkscape:zoom="0.49497475"
     inkscape:cx="375.22776"
     inkscape:cy="576.2567"
     inkscape:document-units="px"
     inkscape:current-layer="layer1"
     showgrid="true"
     inkscape:window-width="1301"
     inkscape:window-height="744"
     inkscape:window-x="65"
     inkscape:window-y="24"
     inkscape:window-maximized="1"
     showguides="false"
     inkscape:snap-global="false">
    <inkscape:grid
       type="xygrid"
       id="grid3008" />
  </sodipodi:namedview>
  <metadata
     id="metadata7">
    <rdf:RDF>
      <cc:Work
         rdf:about="">
        <dc:format>image/svg+xml</dc:format>
        <dc:type
           rdf:resource="http://purl.org/dc/dcmitype/StillImage" />
        <dc:title></dc:title>
      </cc:Work>
    </rdf:RDF>
  </metadata>
  <g
     inkscape:label="Layer 1"
     inkscape:groupmode="layer"
     id="layer1">
    <path
       style="fill:none;stroke:#000000;stroke-width:0.5;stroke-linecap:butt;stroke-linejoin:miter;stroke-miterlimit:4;stroke-opacity:1;stroke-dasharray:none"
       d="m -218.91852,285.59901 -32.91693,-0.059 25.62042,19.51582 -11.72909,33.02966 29.49908,-20.58064 29.48876,21.58726 -11.06243,-34.98888 23.94714,-18.16057 -29.48083,-0.01 -11.18655,-35.22203 z"
       id="path2985"
       inkscape:connector-curvature="0"
       sodipodi:nodetypes="ccccccccccc" />
    <path
       style="fill:none;stroke:#000000;stroke-width:0.5;stroke-linecap:butt;stroke-linejoin:miter;stroke-miterlimit:4;stroke-opacity:1;stroke-dasharray:none"
       d="m -62.854323,251.06548 c -44.455757,-32.78181 -32.84173,-84.33543 -0.23659,-49.13898 31.89535,-35.23185 46.16731,15.24032 0.23659,49.13898 z"
       id="path3006"
       inkscape:connector-curvature="0"
       sodipodi:nodetypes="ccc" />
    <path
       style="fill:#fa77ff;fill-opacity:1;stroke:#000000;stroke-width:0.73951209;stroke-linecap:butt;stroke-linejoin:miter;stroke-miterlimit:4;stroke-opacity:1;stroke-dasharray:none"
       d="m 168.3322,799.80207 -21.81866,-43.52216 -8.73727,46.82637 -51.43409,6.4776 46.80982,25.27755 -8.9004,53.31433 38.86112,-37.88822 39.91973,19.55337 -19.59766,-38.9505 39.08652,-38.20729 z"
       id="path2985-3"
       inkscape:connector-curvature="0"
       sodipodi:nodetypes="ccccccccccc"
       inkscape:transform-center-y="-42.248641"
       inkscape:transform-center-x="-20.364109" />
    <path
       style="fill:#fa77ff;fill-opacity:1;stroke:#000000;stroke-width:0.73951209;stroke-linecap:butt;stroke-linejoin:miter;stroke-miterlimit:4;stroke-opacity:1;stroke-dasharray:none"
       d="m 160.21987,528.60695 c -69.913209,-42.263 -59.78737,-119.76429 -7.00104,-72.34059 42.20618,-56.20808 70.05919,16.1959 7.00104,72.34059 z"
       id="path3006-6"
       inkscape:connector-curvature="0"
       sodipodi:nodetypes="ccc" />
    <path
       style="fill:#fa77ff;fill-opacity:1;stroke:#000000;stroke-width:0.73951209;stroke-linecap:butt;stroke-linejoin:miter;stroke-miterlimit:4;stroke-opacity:1;stroke-dasharray:none"
       d="m 245.05529,313.00143 -40.39958,-27.16807 15.41779,45.07037 -41.60101,30.93187 53.18926,-1.00722 18.46608,50.8 15.20764,-52.10019 44.37499,-2.60352 -36.21765,-24.27942 15.24704,-52.48887 z"
       id="path2985-7"
       inkscape:connector-curvature="0"
       sodipodi:nodetypes="ccccccccccc"
       inkscape:transform-center-x="26.89272"
       inkscape:transform-center-y="17.928479" />
    <path
       style="fill:#fa77ff;fill-opacity:1;stroke:#000000;stroke-width:0.73951209;stroke-linecap:butt;stroke-linejoin:miter;stroke-miterlimit:4;stroke-opacity:1;stroke-dasharray:none"
       d="M 74.146205,1026.3254 C 25.993982,960.33006 65.280401,892.76114 95.641889,956.89835 156.28904,921.36481 154.00124,998.90769 74.146205,1026.3254 z"
       id="path3006-5"
       inkscape:connector-curvature="0"
       sodipodi:nodetypes="ccc" />
    <path
       style="fill:#fa77ff;fill-opacity:1;stroke:#000000;stroke-width:0.73951209;stroke-linecap:butt;stroke-linejoin:miter;stroke-miterlimit:4;stroke-opacity:1;stroke-dasharray:none"
       d="m 213.15802,53.6284 -48.68493,-0.08726 37.89322,28.864376 -17.34761,48.851664 43.62986,-30.43926 43.61459,31.92808 -16.36161,-51.749402 35.4184,-26.85993 -43.60286,-0.01479 L 231.1719,2.0276399 z"
       id="path2985-35"
       inkscape:connector-curvature="0"
       sodipodi:nodetypes="ccccccccccc" />
    <path
       style="fill:#fa77ff;fill-opacity:1;stroke:#000000;stroke-width:0.41713986;stroke-linecap:butt;stroke-linejoin:miter;stroke-miterlimit:4;stroke-opacity:1;stroke-dasharray:none"
       d="m 172.26857,616.93287 c -46.07043,1.02627 -64.69281,-38.93573 -25.21558,-32.32425 3.09235,-39.52811 38.25491,-13.48119 25.21558,32.32425 z"
       id="path3006-62"
       inkscape:connector-curvature="0"
       sodipodi:nodetypes="ccc" />
    <path
       style="fill:#fa77ff;fill-opacity:1;stroke:#000000;stroke-width:0.49701309;stroke-linecap:butt;stroke-linejoin:miter;stroke-miterlimit:4;stroke-opacity:1;stroke-dasharray:none"
       d="m 199.46167,574.31845 c -32.87981,-43.97202 -7.01008,-89.6902 13.89908,-46.8268 40.47721,-24.35747 39.55046,27.77216 -13.89908,46.8268 z"
       id="path3006-9"
       inkscape:connector-curvature="0"
       sodipodi:nodetypes="ccc" />
    <path
       sodipodi:type="spiral"
       style="fill:none;stroke:#000000;stroke-width:1px;stroke-linecap:butt;stroke-linejoin:miter;stroke-opacity:1"
       id="path3839"
       sodipodi:cx="196.42857"
       sodipodi:cy="209.50504"
       sodipodi:expansion="1"
       sodipodi:revolution="3"
       sodipodi:radius="26.954231"
       sodipodi:argument="-17.837358"
       sodipodi:t0="0"
       d="m 196.42857,209.50504 c 0.71627,1.14602 -1.19143,1.53091 -1.90476,1.19047 -1.93307,-0.92257 -1.65836,-3.6079 -0.47619,-5 2.11463,-2.49015 5.98786,-1.94521 8.09524,0.2381 3.09266,3.20409 2.24871,8.40305 -0.95239,11.19047 -4.26655,3.7152 -10.83113,2.5598 -14.28571,-1.66667 -4.34723,-5.31857 -2.8749,-13.26546 2.38096,-17.38095 6.36555,-4.98441 15.70332,-3.19235 20.47619,3.09525 5.62466,7.40971 3.51128,18.14338 -3.80953,23.57142 -8.45217,6.2669 -20.58492,3.8312 -26.66667,-4.52382 -6.91047,-9.49349 -4.15179,-23.02748 5.23811,-29.7619 10.53405,-7.555 25.47081,-4.47289 32.85714,5.9524 8.20023,11.57405 4.79437,27.91469 -6.66668,35.95237"
       transform="matrix(-1.3945237,0.49276403,-0.49276403,-1.3945237,614.16669,413.43126)"
       inkscape:transform-center-x="-39.793717"
       inkscape:transform-center-y="44.207804" />
    <path
       sodipodi:type="arc"
       style="fill:#800080;fill-opacity:0;stroke:#000000;stroke-opacity:1"
       id="path3841"
       sodipodi:cx="139.28572"
       sodipodi:cy="257.00504"
       sodipodi:rx="27.857141"
       sodipodi:ry="26.071428"
       d="m 167.14286,257.00504 a 27.857141,26.071428 0 1 1 -0.007,-0.58441"
       sodipodi:start="0"
       sodipodi:end="6.260768"
       sodipodi:open="true"
       transform="matrix(0.70372927,0,0,0.70372927,-2.0372249,119.02008)" />
    <path
       style="fill:none;stroke:#000000;stroke-width:0.73951209;stroke-linecap:butt;stroke-linejoin:miter;stroke-miterlimit:4;stroke-opacity:1;stroke-dasharray:none"
       d="m 78.865564,289.91769 c -1.056453,-1.05645 -31.96062,-9.00716 -16.729642,-23.01203 14.066318,-12.93399 25.722704,15.80916 25.722704,15.80916 0,0 -16.400282,-24.20102 2.131653,-27.1339 21.655851,-3.42729 11.073911,25.021 11.073911,25.021 0,0 5.13474,-28.77376 20.31005,-19.8935 19.26522,11.27359 -8.68913,27.28862 -8.68913,27.28862 0,0 24.72684,-16.25736 27.49963,2.89746 2.93868,20.3008 -24.59441,10.83633 -24.59441,10.83633 0,0 27.03006,6.12587 19.01602,20.07248 -8.55774,14.89282 -24.8077,-7.42718 -24.8077,-7.42718 0,0 17.99118,19.67965 3.28973,26.11502 -16.596635,7.26493 -17.797097,-21.47039 -17.797097,-21.47039 0,0 2.074816,30.97494 -18.623741,22.71907 -14.873467,-5.93245 4.793828,-28.75611 4.793828,-28.75611 0,0 -17.684309,23.90967 -25.890689,8.30464 -7.109625,-13.51947 20.06147,-18.51435 20.06147,-18.51435 0,0 -27.944595,7.16386 -27.283117,-9.01732 0.754762,-18.46304 30.51653,-3.839 30.51653,-3.839 z"
       id="path3843"
       inkscape:connector-curvature="0"
       sodipodi:nodetypes="cscscscscscscscscsc" />
    <path
       sodipodi:type="arc"
       style="fill:#800080;fill-opacity:0;stroke:#000000;stroke-opacity:1"
       id="path3841-1"
       sodipodi:cx="139.28572"
       sodipodi:cy="257.00504"
       sodipodi:rx="27.857141"
       sodipodi:ry="26.071428"
       d="m 167.14286,257.00504 a 27.857141,26.071428 0 1 1 -0.007,-0.58441"
       sodipodi:start="0"
       sodipodi:end="6.260768"
       sodipodi:open="true"
       transform="matrix(0.47580645,0,0,0.47580645,-134.88411,-5.8840278)" />
    <path
       style="fill:none;stroke:#000000;stroke-width:0.5;stroke-linecap:butt;stroke-linejoin:miter;stroke-miterlimit:4;stroke-opacity:1;stroke-dasharray:none"
       d="m -80.183999,109.66351 c -0.71429,-0.71429 -21.609261,-6.08993 -11.31127,-15.558928 9.51054,-8.74495 17.39167,10.688908 17.39167,10.688908 0,0 -11.08858,-16.362818 1.44126,-18.345808 14.64198,-2.31726 7.48731,16.917238 7.48731,16.917238 0,0 3.4717,-19.454558 13.73206,-13.450418 13.02563,7.62231 -5.87491,18.450418 -5.87491,18.450418 0,0 16.71835,-10.991948 18.59309,1.95903 1.9869,13.72581 -16.62881,7.32668 -16.62881,7.32668 0,0 18.27561,4.14183 12.85714,13.57143 -5.78607,10.06935 -16.77302,-5.02167 -16.77302,-5.02167 0,0 12.16423,13.30583 2.22426,17.65692 -11.22134,4.91198 -12.033,-14.51659 -12.033,-14.51659 0,0 1.40283,20.94282 -12.59191,15.36085 -10.05627,-4.01106 3.24121,-19.44262 3.24121,-19.44262 0,0 -11.95674,16.16584 -17.50525,5.61494 -4.806971,-9.1408 13.56399,-12.51795 13.56399,-12.51795 0,0 -18.893941,4.84364 -18.446701,-6.0968 0.51031,-12.483258 20.632881,-2.59563 20.632881,-2.59563 z"
       id="path3843-2"
       inkscape:connector-curvature="0"
       sodipodi:nodetypes="cscscscscscscscscsc" />
    <path
       sodipodi:type="arc"
       style="fill:#800080;fill-opacity:0;stroke:#000000;stroke-opacity:1"
       id="path3841-7"
       sodipodi:cx="139.28572"
       sodipodi:cy="257.00504"
       sodipodi:rx="27.857141"
       sodipodi:ry="26.071428"
       d="m 167.14286,257.00504 a 27.857141,26.071428 0 1 1 -0.007,-0.58441"
       sodipodi:start="0"
       sodipodi:end="6.260768"
       sodipodi:open="true"
       transform="matrix(0.37518926,0,0,0.37518926,173.04462,572.48825)" />
    <path
       style="fill:none;stroke:#000000;stroke-width:0.39426666;stroke-linecap:butt;stroke-linejoin:miter;stroke-miterlimit:4;stroke-opacity:1;stroke-dasharray:none"
       d="m 235.49788,670.88415 c 0.71351,0.35409 17.68119,-0.88568 12.36768,8.78159 -4.9072,8.92808 -15.6864,-3.61235 -15.6864,-3.61235 0,0 12.40351,9.4384 3.53865,14.07278 -10.3592,5.4156 -9.85172,-10.75878 -9.85172,-10.75878 0,0 2.30024,15.4122 -6.87814,13.50667 -11.65202,-2.41909 -0.25161,-15.26645 -0.25161,-15.26645 0,0 -9.72839,12.42076 -14.38783,3.21394 -4.93823,-9.75764 10.58363,-9.6591 10.58363,-9.6591 0,0 -14.69974,1.50282 -13.02288,-6.90737 1.79062,-8.98077 13.7982,-0.46724 13.7982,-0.46724 0,0 -12.43823,-6.88322 -6.10463,-12.63571 7.15008,-6.49407 12.6448,7.82103 12.6448,7.82103 0,0 -6.31748,-15.29799 5.54542,-14.64749 8.52442,0.46741 2.46949,15.3453 2.46949,15.3453 0,0 4.86822,-15.0893 11.66928,-8.60041 5.89212,5.62169 -6.98715,12.76755 -6.98715,12.76755 0,0 12.90116,-8.37338 15.31948,-0.0849 2.75937,9.45736 -14.76627,7.13091 -14.76627,7.13091 z"
       id="path3843-0"
       inkscape:connector-curvature="0"
       sodipodi:nodetypes="cscscscscscscscscsc" />
    <path
       sodipodi:type="spiral"
       style="fill:none;stroke:#000000;stroke-width:1px;stroke-linecap:butt;stroke-linejoin:miter;stroke-opacity:1"
       id="path3839-9"
       sodipodi:cx="196.42857"
       sodipodi:cy="209.50504"
       sodipodi:expansion="1"
       sodipodi:revolution="3"
       sodipodi:radius="26.954231"
       sodipodi:argument="-17.837358"
       sodipodi:t0="0"
       d="m 196.42857,209.50504 c 0.71627,1.14602 -1.19143,1.53091 -1.90476,1.19047 -1.93307,-0.92257 -1.65836,-3.6079 -0.47619,-5 2.11463,-2.49015 5.98786,-1.94521 8.09524,0.2381 3.09266,3.20409 2.24871,8.40305 -0.95239,11.19047 -4.26655,3.7152 -10.83113,2.5598 -14.28571,-1.66667 -4.34723,-5.31857 -2.8749,-13.26546 2.38096,-17.38095 6.36555,-4.98441 15.70332,-3.19235 20.47619,3.09525 5.62466,7.40971 3.51128,18.14338 -3.80953,23.57142 -8.45217,6.2669 -20.58492,3.8312 -26.66667,-4.52382 -6.91047,-9.49349 -4.15179,-23.02748 5.23811,-29.7619 10.53405,-7.555 25.47081,-4.47289 32.85714,5.9524 8.20023,11.57405 4.79437,27.91469 -6.66668,35.95237"
       transform="matrix(-0.94286737,0.33316833,-0.33316833,-0.94286737,77.240291,555.07811)"
       inkscape:transform-center-x="-26.905386"
       inkscape:transform-center-y="29.889843" />
    <path
       sodipodi:type="spiral"
       style="fill:none;stroke:#000000;stroke-width:1px;stroke-linecap:butt;stroke-linejoin:miter;stroke-opacity:1"
       id="path3839-9-3"
       sodipodi:cx="196.42857"
       sodipodi:cy="209.50504"
       sodipodi:expansion="1"
       sodipodi:revolution="3"
       sodipodi:radius="26.954231"
       sodipodi:argument="-17.837358"
       sodipodi:t0="0"
       d="m 196.42857,209.50504 c 0.71627,1.14602 -1.19143,1.53091 -1.90476,1.19047 -1.93307,-0.92257 -1.65836,-3.6079 -0.47619,-5 2.11463,-2.49015 5.98786,-1.94521 8.09524,0.2381 3.09266,3.20409 2.24871,8.40305 -0.95239,11.19047 -4.26655,3.7152 -10.83113,2.5598 -14.28571,-1.66667 -4.34723,-5.31857 -2.8749,-13.26546 2.38096,-17.38095 6.36555,-4.98441 15.70332,-3.19235 20.47619,3.09525 5.62466,7.40971 3.51128,18.14338 -3.80953,23.57142 -8.45217,6.2669 -20.58492,3.8312 -26.66667,-4.52382 -6.91047,-9.49349 -4.15179,-23.02748 5.23811,-29.7619 10.53405,-7.555 25.47081,-4.47289 32.85714,5.9524 8.20023,11.57405 4.79437,27.91469 -6.66668,35.95237"
       transform="matrix(-0.32691649,-1.113173,1.113173,-0.32691649,199.45028,999.23604)"
       inkscape:transform-center-x="36.455671"
       inkscape:transform-center-y="29.434029" />
    <path
       style="fill:#fa77ff;fill-opacity:1;stroke:#000000;stroke-width:1.47902417px;stroke-linecap:butt;stroke-linejoin:miter;stroke-opacity:1"
       d="m 272.28619,105.92718 8.3014,-24.926222 C 293.98175,96.025449 371.87169,196.7903 424.05722,232.07805 328.22691,189.28363 307.43737,121.21256 272.28619,105.92718 z"
       id="path3923"
       inkscape:connector-curvature="0"
       sodipodi:nodetypes="cccc" />
    <path
       style="fill:#fa77ff;fill-opacity:1;stroke:#000000;stroke-width:1.47902417px;stroke-linecap:butt;stroke-linejoin:miter;stroke-opacity:1"
       d="m 203.34818,772.72976 c -16.38387,6.42528 -24.55934,2.81807 -23.01762,-12.66568 71.2343,-71.10056 168.42666,-62.30909 218.91609,-147.21862 -27.09674,100.79876 -130.21355,63.83028 -195.89847,159.8843 z"
       id="path3923-6"
       inkscape:connector-curvature="0"
       sodipodi:nodetypes="cccc" />
    <path
       style="fill:#fa77ff;fill-opacity:1;stroke:#000000;stroke-width:0.73951209;stroke-linecap:butt;stroke-linejoin:miter;stroke-miterlimit:4;stroke-opacity:1;stroke-dasharray:none"
       d="m 264.94875,926.6084 c -35.08083,-73.77908 16.05258,-132.89218 33.99567,-64.23762 66.18397,-23.67259 49.55834,52.10152 -33.99567,64.23762 z"
       id="path3006-6-0"
       inkscape:connector-curvature="0"
       sodipodi:nodetypes="ccc" />
    <path
       style="fill:#fa77ff;fill-opacity:1;stroke:#000000;stroke-width:0.41713986;stroke-linecap:butt;stroke-linejoin:miter;stroke-miterlimit:4;stroke-opacity:1;stroke-dasharray:none"
       d="m 204.17752,978.44462 c -39.01973,-24.51525 -32.5558,-68.12687 -3.2456,-40.86747 24.35005,-31.29072 39.35537,9.81511 3.2456,40.86747 z"
       id="path3006-62-6"
       inkscape:connector-curvature="0"
       sodipodi:nodetypes="ccc" />
    <path
       style="fill:#fa77ff;fill-opacity:1;stroke:#000000;stroke-width:0.49701309;stroke-linecap:butt;stroke-linejoin:miter;stroke-miterlimit:4;stroke-opacity:1;stroke-dasharray:none"
       d="m 273.58577,1023.3502 c -3.22823,-54.81059 43.54288,-78.72418 37.38984,-31.43142 47.20008,1.96062 17.71772,44.96242 -37.38984,31.43142 z"
       id="path3006-9-2"
       inkscape:connector-curvature="0"
       sodipodi:nodetypes="ccc" />
    <path
       sodipodi:type="arc"
       style="fill:#800080;fill-opacity:0;stroke:#000000;stroke-opacity:1"
       id="path3841-1-6"
       sodipodi:cx="139.28572"
       sodipodi:cy="257.00504"
       sodipodi:rx="27.857141"
       sodipodi:ry="26.071428"
       d="m 167.14286,257.00504 a 27.857141,26.071428 0 1 1 -0.007,-0.58441"
       sodipodi:start="0"
       sodipodi:end="6.260768"
       sodipodi:open="true"
       transform="matrix(0.70372927,0,0,0.70372927,21.486819,-73.840965)" />
    <path
       style="fill:none;stroke:#000000;stroke-width:0.73951209;stroke-linecap:butt;stroke-linejoin:miter;stroke-miterlimit:4;stroke-opacity:1;stroke-dasharray:none"
       d="M 102.38961,97.05664 C 101.33316,96.000187 70.428988,88.049485 85.659965,74.044611 99.726283,61.110618 111.38267,89.853762 111.38267,89.853762 c 0,0 -16.400285,-24.201001 2.13165,-27.133892 21.65585,-3.427284 11.07392,25.021002 11.07392,25.021002 0,0 5.13473,-28.77376 20.31004,-19.893491 19.26523,11.273575 -8.68913,27.288612 -8.68913,27.288612 0,0 24.72684,-16.25736 27.49963,2.897454 2.93868,20.300803 -24.59441,10.836333 -24.59441,10.836333 0,0 27.03007,6.12587 19.01602,20.07247 -8.55774,14.89282 -24.8077,-7.42717 -24.8077,-7.42717 0,0 17.99119,19.67965 3.28974,26.11502 -16.59664,7.26494 -17.7971,-21.47039 -17.7971,-21.47039 0,0 2.07481,30.97494 -18.62375,22.71908 -14.873462,-5.93247 4.79384,-28.75611 4.79384,-28.75611 0,0 -17.684315,23.90967 -25.890696,8.30462 -7.109625,-13.51946 20.061475,-18.51435 20.061475,-18.51435 0,0 -27.944601,7.16387 -27.283121,-9.01731 0.75476,-18.463045 30.516532,-3.839 30.516532,-3.839 z"
       id="path3843-2-1"
       inkscape:connector-curvature="0"
       sodipodi:nodetypes="cscscscscscscscscsc" />
    <path
       style="fill:#fa77ff;fill-opacity:1;stroke:#000000;stroke-width:1.47902417px;stroke-linecap:butt;stroke-linejoin:miter;stroke-opacity:1"
       d="M 327.33532,7.3138485 C 320.66565,54.102455 435.48787,2.5700084 519.34436,127.48456 c -21.58483,96.77795 -101.49191,21.52257 -153.25973,-2.43143 12.74011,69.045 114.74233,92.04492 81.42141,131.31784 -31.05463,36.60179 -133.11218,-54.93518 -133.11218,-54.93518 -26.26308,-8.08741 -13.87369,-0.0614 18.80368,90.08534 32.16635,67.00443 95.21092,35.19853 154.45345,15.55924 -35.36461,102.65114 -125.54424,10.80892 -198.61183,105.6446 140.07978,-26.92085 105.28093,62.00443 141.56375,105.64458 -122.87139,-139.33415 -191.26157,-55.49459 -118.32194,25.35471 72.61915,52.49406 5.3381,61.2693 -2.11289,88.74145 50.19859,11.1759 77.32002,-29.5719 105.64459,-67.61254 2.3495,39.44065 -30.50239,129.59068 23.24181,118.32193 -76.90695,68.53236 -8.20989,69.46424 -158.46689,80.2899 73.88557,38.66526 156.76221,127.68613 54.93518,181.70869 76.69507,12.17821 43.96314,32.03054 79.17014,25.92046 -55.49247,103.56305 -92.52586,22.90535 -88.67815,83.94995 l 417.29613,2.1128 0,-1052.2200549 z"
       id="path3988"
       inkscape:connector-curvature="0"
       sodipodi:nodetypes="cccacccccccccccccccc" />
    <path
       style="fill:#fa77ff;fill-opacity:1;stroke:#000000;stroke-width:0.13334309;stroke-miterlimit:4;stroke-opacity:1;stroke-dasharray:none;stroke-dashoffset:0"
       d="m 104.51379,121.70825 c -4.34545,6.10848 -9.381488,12.76834 -9.232702,20.62475 1.161242,5.63286 7.893852,7.6271 12.932782,7.15507 6.4299,-1.17156 8.72045,-8.33245 9.4895,-13.98329 0.44363,-3.1358 0.46194,-6.30912 0.64197,-9.46615 -4.62732,-0.82565 -9.3073,-2.29299 -12.90945,-5.43923 -0.30737,0.36962 -0.61474,0.73924 -0.9221,1.10885 z"
       id="path4155"
       inkscape:connector-curvature="0" />
    <path
       style="fill:#fa77ff;fill-opacity:1;stroke:#000000;stroke-width:0.13334309;stroke-miterlimit:4;stroke-opacity:1;stroke-dasharray:none;stroke-dashoffset:0"
       d="m 132.9239,121.13631 c -3.75857,2.93507 -8.60654,4.49545 -13.34132,4.93733 -0.36533,2.75506 0.64107,5.70656 1.07796,8.4757 1.31442,5.25609 3.44195,11.85864 9.27527,13.45636 5.52262,0.86677 12.67489,-3.34224 11.78892,-9.58287 -0.85167,-6.46698 -5.34815,-11.53653 -8.69579,-16.84298 -0.10001,-0.15343 0.28875,-0.50624 -0.10501,-0.44354 z"
       id="path4157"
       inkscape:connector-curvature="0" />
    <path
       style="fill:#fa77ff;fill-opacity:1;stroke:#000000;stroke-width:0.13334309;stroke-miterlimit:4;stroke-opacity:1;stroke-dasharray:none;stroke-dashoffset:0"
       d="m 139.15685,111.16826 c -1.04069,3.65736 -3.11914,6.98286 -5.80109,9.66458 4.7992,5.16806 9.70522,11.77169 17.2515,12.59429 6.95248,-0.30318 11.22693,-10.63794 5.7046,-15.38375 -4.58899,-4.4298 -10.74099,-6.74658 -16.78151,-8.43918 -0.12454,0.52135 -0.24901,1.0427 -0.3735,1.56406 z"
       id="path4159"
       inkscape:connector-curvature="0" />
    <path
       style="fill:#fa77ff;fill-opacity:1;stroke:#000000;stroke-width:0.13334309;stroke-miterlimit:4;stroke-opacity:1;stroke-dasharray:none;stroke-dashoffset:0"
       d="m 115.52067,63.183899 c -4.66834,-0.117109 -9.91989,2.852556 -10.1198,7.960432 -0.4454,6.732337 3.51813,12.649587 6.72319,18.220288 6.93559,-2.118096 15.0298,-1.221259 20.67145,3.630043 4.69862,3.557083 7.10792,9.604478 6.72317,15.418968 6.44919,1.64452 13.93393,3.57015 20.12284,0.11669 4.62154,-3.01019 4.17508,-9.670395 2.29944,-14.1817 -1.88334,-4.933492 -7.94605,-5.791933 -12.44255,-4.400423 -4.76705,1.049206 -8.98059,3.826384 -13.44637,5.485924 -0.3976,-1.178221 1.8289,-1.857892 2.54902,-2.604148 5.19083,-3.743544 11.23029,-8.224928 12.28633,-14.985829 0.44764,-5.449818 -4.81688,-9.271545 -9.45447,-10.738418 -5.04536,-1.388062 -9.18761,2.873087 -11.32202,6.944952 -2.64169,4.243267 -3.2266,9.366089 -5.31085,13.796522 -1.30879,-0.08771 -0.0237,-2.316626 -0.0584,-3.116467 1.57624,-6.072963 3.41427,-13.537799 -0.85207,-18.943966 -2.04737,-2.437214 -5.4012,-2.747878 -8.36895,-2.602898 z"
       id="path4161"
       inkscape:connector-curvature="0" />
    <path
       style="fill:#fa77ff;fill-opacity:1;stroke:#000000;stroke-width:0.13334309;stroke-miterlimit:4;stroke-opacity:1;stroke-dasharray:none;stroke-dashoffset:0"
       d="m 92.479756,71.44781 c -4.904184,0.554636 -8.749829,4.866653 -10.376563,9.291065 -0.274256,3.815144 2.995453,7.028798 5.965715,8.975991 4.516275,2.81485 9.584731,4.830065 14.483952,6.699759 2.49487,-2.378641 4.919,-4.947203 8.13551,-6.361343 C 107.136,83.27067 103.74488,75.247466 96.226532,72.04309 95.041404,71.582454 93.750777,71.354427 92.479756,71.44781 z"
       id="path4163"
       inkscape:connector-curvature="0" />
    <path
       style="fill:#fa77ff;fill-opacity:1;stroke:#000000;stroke-width:0.13334309;stroke-miterlimit:4;stroke-opacity:1;stroke-dasharray:none;stroke-dashoffset:0"
       d="m 81.939775,92.200959 c -4.161723,-0.139176 -8.660914,2.354858 -9.174343,6.816556 -1.13555,4.583705 1.536943,9.723235 6.248803,10.856525 6.58864,2.0902 13.602644,0.26188 20.212054,-0.26984 0.697012,-3.64808 -0.03181,-7.70478 2.299421,-10.936844 0.88872,-1.972145 -2.410944,-2.089062 -3.537512,-2.778865 -5.146642,-1.890473 -10.491872,-3.78009 -16.048423,-3.687532 z"
       id="path4165"
       inkscape:connector-curvature="0" />
    <path
       style="fill:#fa77ff;fill-opacity:1;stroke:#000000;stroke-width:0.13334309;stroke-miterlimit:4;stroke-opacity:1;stroke-dasharray:none;stroke-dashoffset:0"
       d="m 98.65435,110.65468 c -6.187827,1.55638 -12.761157,3.45687 -17.531632,7.90208 -5.23267,4.484 -1.35563,14.03212 5.194126,14.47352 6.277168,-0.24732 10.858211,-5.42834 15.010446,-9.5712 0.84433,-1.35507 3.58024,-2.94112 2.68207,-4.39115 -2.23025,-2.30523 -3.22513,-5.47157 -4.502953,-8.27318 -0.252601,-0.15819 -0.563325,-0.16974 -0.852057,-0.14007 z"
       id="path4167"
       inkscape:connector-curvature="0" />
    <path
       style="fill:#fa77ff;fill-opacity:1;stroke:#000000;stroke-width:0.26668614;stroke-miterlimit:4;stroke-opacity:1;stroke-dasharray:none;stroke-dashoffset:0"
       d="m 129.17689,282.56503 c -5.8043,0.62106 -11.248,3.18606 -16.13097,6.27964 2.14945,3.87575 2.38376,8.62881 4.27201,12.44255 6.34359,1.98224 14.71503,3.13481 20.21624,-1.49404 3.24577,-4.71336 2.51369,-12.94564 -2.49785,-16.22435 -1.76347,-0.99884 -3.8738,-1.17112 -5.85943,-1.0038 z"
       id="path4169"
       inkscape:connector-curvature="0" />
    <path
       style="fill:#fa77ff;fill-opacity:1;stroke:#000000;stroke-width:0.26668614;stroke-miterlimit:4;stroke-opacity:1;stroke-dasharray:none;stroke-dashoffset:0"
       d="m 114.79674,259.85095 c -8.85818,3.0274 -10.76131,13.896 -13.0495,21.73362 3.90977,0.99588 7.22655,3.39915 9.99139,6.32632 6.2618,-4.87912 14.90477,-10.10775 15.33725,-18.86226 -0.88063,-5.01702 -7.39354,-9.15717 -12.27914,-9.19768 z"
       id="path4171"
       inkscape:connector-curvature="0" />
    <path
       style="fill:#fa77ff;fill-opacity:1;stroke:#000000;stroke-width:0.26668614;stroke-miterlimit:4;stroke-opacity:1;stroke-dasharray:none;stroke-dashoffset:0"
       d="m 91.522405,256.13918 c -5.434026,0.0968 -11.040002,4.69042 -9.057621,10.55168 0.70866,5.3627 3.01295,11.10392 6.723169,14.96375 3.605819,-0.88606 8.098064,-0.0154 11.345377,-1.14388 1.13703,-6.96725 4.39199,-15.57982 -0.51357,-21.80366 -2.25052,-2.10019 -5.497884,-2.81729 -8.497355,-2.56789 z"
       id="path4173"
       inkscape:connector-curvature="0" />
    <path
       style="fill:#fa77ff;fill-opacity:1;stroke:#000000;stroke-width:0.26668614;stroke-miterlimit:4;stroke-opacity:1;stroke-dasharray:none;stroke-dashoffset:0"
       d="m 69.158491,264.49649 c -5.652209,0.69304 -12.484221,7.36748 -9.291068,13.2596 4.793829,5.95078 12.58274,9.02825 19.725999,10.97186 1.593663,-2.48841 4.629035,-4.26925 7.096683,-6.06954 -3.596706,-7.10604 -8.049249,-15.76331 -16.224333,-18.13859 -0.434981,-0.0309 -0.871737,-0.0803 -1.307281,-0.0233 z"
       id="path4175"
       inkscape:connector-curvature="0" />
    <path
       style="fill:#fa77ff;fill-opacity:1;stroke:#000000;stroke-width:0.26668614;stroke-miterlimit:4;stroke-opacity:1;stroke-dasharray:none;stroke-dashoffset:0"
       d="m 58.093245,285.41305 c -6.289994,-0.51789 -10.321296,6.21058 -8.287253,11.81224 2.909196,7.24348 12.510356,6.31245 18.885601,5.97617 3.104324,-0.16512 7.785155,-0.39376 7.120038,-4.7856 -0.320106,-2.82416 2.663101,-6.50806 1.867253,-8.24292 C 71.388017,287.85501 64.924,285.1702 58.093245,285.41305 z"
       id="path4177"
       inkscape:connector-curvature="0" />
    <path
       style="fill:#fa77ff;fill-opacity:1;stroke:#000000;stroke-width:0.26668614;stroke-miterlimit:4;stroke-opacity:1;stroke-dasharray:none;stroke-dashoffset:0"
       d="m 74.107498,303.94848 c -6.854744,2.10548 -16.240129,4.20962 -18.652166,11.95233 -0.757527,5.83282 5.617615,12.21872 11.392066,8.66074 5.672323,-2.50886 9.77249,-7.35571 13.936594,-11.76556 -2.473669,-2.47723 -3.165305,-6.44557 -5.322521,-8.84751 -0.429242,-0.14051 -0.919051,-0.0642 -1.353973,0 z"
       id="path4179"
       inkscape:connector-curvature="0" />
    <path
       style="fill:#fa77ff;fill-opacity:1;stroke:#000000;stroke-width:0.26668614;stroke-miterlimit:4;stroke-opacity:1;stroke-dasharray:none;stroke-dashoffset:0"
       d="m 78.6363,318.28193 c -2.905557,5.38932 -7.82179,11.39753 -6.349672,17.85845 3.397363,7.99547 17.041791,8.18821 19.67932,-0.6303 1.824498,-5.22226 3.001562,-11.43119 1.704136,-16.73793 -4.382322,-0.38537 -8.412029,-2.50682 -11.905632,-5.08907 -1.042713,1.53295 -2.085439,3.0659 -3.128152,4.59885 z"
       id="path4181"
       inkscape:connector-curvature="0" />
    <path
       style="fill:#fa77ff;fill-opacity:1;stroke:#000000;stroke-width:0.26668614;stroke-miterlimit:4;stroke-opacity:1;stroke-dasharray:none;stroke-dashoffset:0"
       d="m 106.06594,316.41438 c -3.06918,1.71737 -6.623109,2.12932 -10.061425,2.4745 1.113203,7.6843 2.017153,17.91129 9.968065,21.5702 6.559,2.25865 14.62772,-5.16822 11.32201,-11.92898 -1.75042,-5.1567 -4.78754,-9.78795 -8.5207,-13.72648 -0.90265,0.53692 -1.8053,1.07383 -2.70795,1.61076 z"
       id="path4183"
       inkscape:connector-curvature="0" />
    <path
       style="fill:#fa77ff;fill-opacity:1;stroke:#000000;stroke-width:0.26668614;stroke-miterlimit:4;stroke-opacity:1;stroke-dasharray:none;stroke-dashoffset:0"
       d="m 116.75766,303.20146 c -2.05831,1.86608 -2.02471,5.7886 -4.35264,7.87039 -3.74578,3.99986 2.51445,7.37163 4.93626,9.91803 3.9085,3.46036 10.95092,8.03248 15.05712,2.28774 4.12773,-4.02285 3.23265,-11.05371 -1.84421,-13.81987 -4.22172,-2.66569 -8.81544,-5.4556 -13.79653,-6.25629 z"
       id="path4185"
       inkscape:connector-curvature="0" />
    <path
       style="fill:#fa77ff;fill-opacity:1;stroke:#000000;stroke-width:0.0471439;stroke-miterlimit:4;stroke-opacity:1;stroke-dasharray:none;stroke-dashoffset:0"
       d="m 213.96456,671.4792 c -3.12936,0.28 -6.59581,0.65282 -9.00454,2.88873 -1.37404,1.28789 -1.61411,3.38703 -0.8812,5.07275 0.76229,1.98094 2.15865,4.31302 4.52099,4.45176 2.9536,0.1025 5.38728,-1.98366 7.43893,-3.85787 0.94053,-0.78507 1.66794,-1.93509 2.75824,-2.48492 0.40939,0.33803 -0.44659,0.77693 -0.53684,1.116 -2.00714,2.67086 -4.09971,5.66908 -4.20892,9.13069 -0.11862,2.19947 1.74138,3.85456 3.69405,4.44335 2.04878,0.75766 4.76726,0.8055 6.17712,-1.14608 1.52714,-2.04308 1.9038,-4.67172 1.78688,-7.1599 0.0657,-1.53377 -0.16767,-3.12543 0.11137,-4.62607 0.46999,0.0581 0.34537,0.88392 0.43744,1.24216 0.0712,3.14644 0.44588,6.60796 2.6246,9.05819 1.1412,1.27959 2.98315,1.5954 4.57656,1.10184 2.15379,-0.61808 4.65865,-1.898 5.07589,-4.32895 0.36035,-2.92772 -1.74281,-5.40941 -3.69247,-7.32285 -0.84787,-0.82757 -1.71579,-1.63439 -2.57192,-2.45341 -2.85263,2.08256 -6.62564,2.89035 -10.04036,1.89006 -3.38428,-0.93242 -6.3546,-3.57864 -7.27958,-7.0196 -0.3287,0.003 -0.65772,-0.006 -0.98628,0.004 z"
       id="path4189"
       inkscape:connector-curvature="0" />
    <path
       style="fill:#fa77ff;fill-opacity:1;stroke:#000000;stroke-width:0.0471439;stroke-miterlimit:4;stroke-opacity:1;stroke-dasharray:none;stroke-dashoffset:0"
       d="m 226.84,644.57285 c -2.13653,0.007 -4.49375,0.93388 -5.32597,3.05365 -0.99176,2.33485 -0.63906,4.9984 -0.16522,7.41647 0.23116,1.32556 0.8568,2.58208 1.03842,3.8992 -0.57279,0.20648 -0.71675,-0.77968 -0.96282,-1.12288 -1.3836,-2.88978 -3.13056,-5.82497 -5.94947,-7.51026 -1.88147,-1.13335 -4.27799,-0.38053 -5.70375,1.13111 -1.04137,0.86741 -1.78791,2.12922 -1.59644,3.52798 0.0853,2.24517 1.82165,3.98542 3.36329,5.44316 1.25821,1.2813 2.89624,2.092 4.25055,3.23536 0.1408,0.50811 -0.69653,0.13903 -0.87075,-0.033 -2.70846,-1.56406 -5.64462,-3.25347 -8.87249,-3.1652 -1.92798,0.0317 -3.42898,1.65886 -3.76772,3.47884 -0.58503,1.83349 -0.0479,4.03869 1.65069,5.08828 3.19685,2.18582 7.23225,1.89043 10.91524,1.93131 -0.78024,-3.61738 0.66901,-7.63765 3.70581,-9.80514 1.9103,-1.39892 4.25407,-2.34444 6.65644,-2.14178 4.92373,-0.37739 9.8197,3.37455 10.64286,8.26174 0.0176,0.43886 0.35764,1.26597 -0.12792,1.47736 0.53133,0.45771 0.0777,1.31844 0.14856,1.91895 3.9647,0.20099 8.19291,0.50392 11.88089,-1.24629 1.58586,-0.72336 2.73205,-2.395 2.47192,-4.17626 -0.08,-2.07423 -1.33914,-4.29438 -3.52073,-4.68108 -3.36067,-0.62597 -6.6443,0.92382 -9.58168,2.37836 -0.73941,0.27723 -1.4142,1.00685 -2.19955,1.02344 -0.40899,-0.5613 0.72197,-0.68573 0.97391,-1.01931 2.911,-2.00371 6.12117,-4.27762 7.21767,-7.81191 0.39457,-1.89047 -0.81558,-3.63457 -2.35224,-4.60957 -1.41027,-1.1071 -3.51518,-0.96238 -4.7994,0.27649 -2.82883,2.29119 -4.14608,5.82272 -5.53396,9.06231 -0.75848,-0.20089 -0.029,-1.06553 0.0299,-1.5323 1.15736,-3.61379 2.23574,-7.57963 1.04718,-11.32662 -0.72836,-1.82813 -2.84409,-2.51407 -4.66322,-2.4224 z"
       id="path4191"
       inkscape:connector-curvature="0" />
    <path
       style="fill:#fa77ff;fill-opacity:1;stroke:#000000;stroke-width:0.0471439;stroke-miterlimit:4;stroke-opacity:1;stroke-dasharray:none;stroke-dashoffset:0"
       d="m 235.84867,671.22748 c -0.63376,1.28872 -1.09642,2.71779 -2.09224,3.81311 -0.53109,0.60893 -1.3629,1.22234 -0.27213,1.74841 2.52594,2.43209 5.23707,5.22896 8.8805,5.72512 1.68455,0.25445 3.40373,-0.43077 4.428,-1.79102 1.15994,-1.53358 2.23846,-3.57735 1.60529,-5.53396 -0.9376,-2.23976 -3.57995,-2.92764 -5.7403,-3.39629 -2.24302,-0.37049 -4.54541,-0.49184 -6.80912,-0.56537 z"
       id="path4193"
       inkscape:connector-curvature="0" />
    <path
       sodipodi:type="arc"
       style="fill:#800080;fill-opacity:0;stroke:#000000;stroke-opacity:1"
       id="path3841-7-9"
       sodipodi:cx="139.28572"
       sodipodi:cy="257.00504"
       sodipodi:rx="27.857141"
       sodipodi:ry="26.071428"
       d="m 167.14286,257.00504 a 27.857141,26.071428 0 1 1 -0.007,-0.58441"
       sodipodi:start="0"
       sodipodi:end="6.260768"
       sodipodi:open="true"
       transform="matrix(0.37518926,0,0,0.37518926,302.92826,882.72175)" />
    <path
       style="fill:none;stroke:#000000;stroke-width:0.39426666;stroke-linecap:butt;stroke-linejoin:miter;stroke-miterlimit:4;stroke-opacity:1;stroke-dasharray:none"
       d="m 365.38152,981.11766 c 0.71351,0.3541 17.68119,-0.88568 12.36768,8.78158 -4.90721,8.9281 -15.6864,-3.61233 -15.6864,-3.61233 0,0 12.4035,9.43839 3.53865,14.07279 -10.3592,5.4156 -9.85173,-10.7588 -9.85173,-10.7588 0,0 2.30024,15.4122 -6.87814,13.5067 -11.65202,-2.4191 -0.25161,-15.26647 -0.25161,-15.26647 0,0 -9.72839,12.42077 -14.38783,3.21393 -4.93823,-9.75764 10.58364,-9.65909 10.58364,-9.65909 0,0 -14.69975,1.5028 -13.02289,-6.90737 1.79062,-8.98077 13.79821,-0.46726 13.79821,-0.46726 0,0 -12.43824,-6.88321 -6.10464,-12.6357 7.15008,-6.49407 12.6448,7.82104 12.6448,7.82104 0,0 -6.31748,-15.29799 5.54543,-14.6475 8.52441,0.46741 2.46948,15.34531 2.46948,15.34531 0,0 4.86822,-15.08931 11.66928,-8.60042 5.89212,5.62169 -6.98715,12.76754 -6.98715,12.76754 0,0 12.90116,-8.37337 15.31949,-0.0849 2.75936,9.45735 -14.76627,7.13092 -14.76627,7.13092 z"
       id="path3843-0-2"
       inkscape:connector-curvature="0"
       sodipodi:nodetypes="cscscscscscscscscsc" />
    <path
       style="fill:#fa77ff;fill-opacity:1;stroke:#000000;stroke-width:0.0471439;stroke-miterlimit:4;stroke-opacity:1;stroke-dasharray:none;stroke-dashoffset:0"
       d="m 343.8482,981.71272 c -3.12937,0.27999 -6.59581,0.6528 -9.00455,2.88872 -1.37403,1.2879 -1.61411,3.38703 -0.88119,5.07276 0.76229,1.98093 2.15865,4.31302 4.52098,4.45176 2.95361,0.1025 5.38728,-1.98367 7.43894,-3.85787 0.94052,-0.78509 1.66793,-1.93509 2.75823,-2.48492 0.4094,0.33803 -0.44659,0.77693 -0.53684,1.116 -2.00714,2.67084 -4.0997,5.66908 -4.20891,9.13069 -0.11862,2.19944 1.74139,3.85454 3.69404,4.44334 2.04878,0.7577 4.76726,0.8055 6.17713,-1.1461 1.52713,-2.04306 1.90379,-4.6717 1.78688,-7.15987 0.0657,-1.53379 -0.16768,-3.12543 0.11137,-4.62608 0.46998,0.0581 0.34536,0.88392 0.43743,1.24215 0.0712,3.14646 0.44588,6.60798 2.6246,9.0582 1.1412,1.2796 2.98315,1.5954 4.57656,1.1018 2.15379,-0.618 4.65865,-1.89795 5.0759,-4.32891 0.36035,-2.92771 -1.74281,-5.4094 -3.69248,-7.32284 -0.84785,-0.82758 -1.71578,-1.6344 -2.57191,-2.45343 -2.85262,2.08258 -6.62565,2.89036 -10.04036,1.89007 -3.38429,-0.93241 -6.35461,-3.57863 -7.27958,-7.0196 -0.32871,0.003 -0.65773,-0.006 -0.98629,0.004 z"
       id="path4189-4"
       inkscape:connector-curvature="0" />
    <path
       style="fill:#fa77ff;fill-opacity:1;stroke:#000000;stroke-width:0.0471439;stroke-miterlimit:4;stroke-opacity:1;stroke-dasharray:none;stroke-dashoffset:0"
       d="m 356.72363,954.80637 c -2.13653,0.007 -4.49374,0.93386 -5.32596,3.05365 -0.99176,2.33485 -0.63907,4.9984 -0.16522,7.41647 0.23115,1.32555 0.8568,2.58207 1.03842,3.89919 -0.57279,0.20649 -0.71675,-0.77969 -0.96283,-1.12288 -1.3836,-2.88977 -3.13056,-5.82497 -5.94946,-7.51026 -1.88147,-1.13335 -4.27799,-0.38052 -5.70376,1.13111 -1.04137,0.8674 -1.7879,2.12922 -1.59644,3.52798 0.0853,2.24517 1.82166,3.98543 3.36329,5.44317 1.25821,1.28129 2.89625,2.09198 4.25055,3.23536 0.1408,0.5081 -0.69653,0.13903 -0.87075,-0.033 -2.70846,-1.56408 -5.64462,-3.25347 -8.87248,-3.1652 -1.92799,0.0316 -3.42899,1.65886 -3.76773,3.47884 -0.58503,1.83349 -0.0479,4.03868 1.65069,5.08827 3.19685,2.18582 7.23226,1.89043 10.91524,1.93131 -0.78024,-3.61739 0.66901,-7.63765 3.70582,-9.80513 1.91029,-1.39892 4.25407,-2.34444 6.65644,-2.14179 4.92372,-0.37739 9.8197,3.37456 10.64287,8.26174 0.0176,0.43887 0.35763,1.26597 -0.12794,1.47737 0.53134,0.45771 0.0777,1.31842 0.14857,1.91894 3.96469,0.20098 8.1929,0.50392 11.88088,-1.24628 1.58586,-0.72336 2.73206,-2.395 2.47192,-4.17627 -0.08,-2.07422 -1.33913,-4.29437 -3.52073,-4.68108 -3.36066,-0.62597 -6.64429,0.92381 -9.58167,2.37837 -0.73942,0.27722 -1.4142,1.00683 -2.19955,1.02343 -0.409,-0.5613 0.72196,-0.68573 0.9739,-1.01932 2.911,-2.0037 6.12119,-4.27761 7.21767,-7.8119 0.39458,-1.89048 -0.81557,-3.63457 -2.35223,-4.60958 -1.41027,-1.10709 -3.51519,-0.96236 -4.79941,0.27649 -2.82883,2.29121 -4.14608,5.82274 -5.53396,9.06233 -0.75847,-0.2009 -0.029,-1.06554 0.0299,-1.53232 1.15735,-3.61377 2.23573,-7.57963 1.04717,-11.32662 -0.72835,-1.82811 -2.84409,-2.51405 -4.66322,-2.42238 z"
       id="path4191-4"
       inkscape:connector-curvature="0" />
    <path
       style="fill:#fa77ff;fill-opacity:1;stroke:#000000;stroke-width:0.0471439;stroke-miterlimit:4;stroke-opacity:1;stroke-dasharray:none;stroke-dashoffset:0"
       d="m 365.73232,981.46098 c -0.63377,1.28872 -1.09644,2.71781 -2.09226,3.81313 -0.53109,0.60893 -1.36289,1.22234 -0.27213,1.74841 2.52596,2.43209 5.23708,5.22896 8.8805,5.72511 1.68455,0.25445 3.40373,-0.43077 4.428,-1.79101 1.15995,-1.53358 2.23847,-3.57737 1.6053,-5.53396 -0.93761,-2.23976 -3.57996,-2.92764 -5.7403,-3.3963 -2.24303,-0.37048 -4.54541,-0.49184 -6.80911,-0.56538 z"
       id="path4193-5"
       inkscape:connector-curvature="0" />
    <path
       sodipodi:type="spiral"
       style="fill:none;stroke:#000000;stroke-width:1px;stroke-linecap:butt;stroke-linejoin:miter;stroke-opacity:1"
       id="path3839-91"
       sodipodi:cx="196.42857"
       sodipodi:cy="209.50504"
       sodipodi:expansion="1"
       sodipodi:revolution="3"
       sodipodi:radius="26.954231"
       sodipodi:argument="-17.837358"
       sodipodi:t0="0"
       d="m 196.42857,209.50504 c 0.71627,1.14602 -1.19143,1.53091 -1.90476,1.19047 -1.93307,-0.92257 -1.65836,-3.6079 -0.47619,-5 2.11463,-2.49015 5.98786,-1.94521 8.09524,0.2381 3.09266,3.20409 2.24871,8.40305 -0.95239,11.19047 -4.26655,3.7152 -10.83113,2.5598 -14.28571,-1.66667 -4.34723,-5.31857 -2.8749,-13.26546 2.38096,-17.38095 6.36555,-4.98441 15.70332,-3.19235 20.47619,3.09525 5.62466,7.40971 3.51128,18.14338 -3.80953,23.57142 -8.45217,6.2669 -20.58492,3.8312 -26.66667,-4.52382 -6.91047,-9.49349 -4.15179,-23.02748 5.23811,-29.7619 10.53405,-7.555 25.47081,-4.47289 32.85714,5.9524 8.20023,11.57405 4.79437,27.91469 -6.66668,35.95237"
       transform="matrix(-1.3945237,0.49276403,-0.49276403,-1.3945237,802.44134,294.03828)"
       inkscape:transform-center-x="-39.793713"
       inkscape:transform-center-y="44.207798" />
  </g>
  <g
     inkscape:groupmode="layer"
     id="layer2"
     inkscape:label="Layer" />
</svg>
